<svg version="1.1" xmlns="http://www.w3.org/2000/svg" xmlns:xlink="http://www.w3.org/1999/xlink" width="384px" height="512px" viewBox="0,0,192,256"><g fill="#ffffff" fill-rule="nonzero" stroke="none" stroke-width="1" stroke-linecap="butt" stroke-linejoin="miter" stroke-miterlimit="10" stroke-dasharray="" stroke-dashoffset="0" font-family="none" font-weight="none" font-size="none" text-anchor="none" style="mix-blend-mode: normal"><g transform="scale(0.5,0.5)"><path d="M64,0c-35.3,0 -64,28.7 -64,64v384c0,35.3 28.7,64 64,64h256c35.3,0 64,-28.7 64,-64v-288h-128c-17.7,0 -32,-14.3 -32,-32v-128zM256,0v128h128zM216,232v102.1l31,-31c9.4,-9.4 24.6,-9.4 33.9,0c9.3,9.4 9.4,24.6 0,33.9l-72,72c-9.4,9.4 -24.6,9.4 -33.9,0l-72,-72c-9.4,-9.4 -9.4,-24.6 0,-33.9c9.4,-9.3 24.6,-9.4 33.9,0l31,31v-102.1c0,-13.3 10.7,-24 24,-24c13.3,0 24,10.7 24,24z"></path></g></g></svg>