<svg version="1.1" xmlns="http://www.w3.org/2000/svg" xmlns:xlink="http://www.w3.org/1999/xlink" width="640px" height="512px" viewBox="0,0,256,204.79688"><g fill="#ffffff" fill-rule="nonzero" stroke="none" stroke-width="1" stroke-linecap="butt" stroke-linejoin="miter" stroke-miterlimit="10" stroke-dasharray="" stroke-dashoffset="0" font-family="none" font-weight="none" font-size="none" text-anchor="none" style="mix-blend-mode: normal"><g transform="translate(0.00036,-0.00107) scale(0.4,0.4)"><path d="M524.531,69.836c-0.16343,-0.31668 -0.43427,-0.56483 -0.764,-0.7c-38.12323,-17.49136 -78.35416,-29.96408 -119.686,-37.106c-0.77018,-0.14318 -1.54537,0.22365 -1.923,0.91c-5.4782,9.94289 -10.45119,20.15588 -14.9,30.6c-44.55347,-6.76318 -89.87253,-6.76318 -134.426,0c-4.47827,-10.47065 -9.53095,-20.68618 -15.135,-30.6c-0.39336,-0.66993 -1.15659,-1.03092 -1.924,-0.91c-41.33621,7.12693 -81.56976,19.60058 -119.688,37.107c-0.32631,0.13833 -0.60164,0.37453 -0.788,0.676c-76.229,113.838 -97.111,224.877 -86.867,334.541c0.05823,0.54303 0.33428,1.03921 0.765,1.375c44.38744,32.86553 94.03533,57.95204 146.825,74.189c0.76137,0.22839 1.58444,-0.04131 2.063,-0.676c11.33808,-15.4272 21.38446,-31.76324 30.037,-48.842c0.24048,-0.47405 0.26666,-1.02833 0.07191,-1.52293c-0.19474,-0.4946 -0.59179,-0.88224 -1.09091,-1.06507c-15.84242,-6.06166 -31.17973,-13.36886 -45.868,-21.853c-0.54185,-0.31854 -0.88929,-0.8862 -0.92642,-1.51365c-0.03713,-0.62745 0.24092,-1.23213 0.74142,-1.61235c3.082,-2.309 6.166,-4.711 9.109,-7.137c0.53332,-0.43925 1.26945,-0.53843 1.9,-0.256c96.229,43.917 200.41,43.917 295.5,0c0.63247,-0.30065 1.38157,-0.20993 1.924,0.233c2.944,2.426 6.027,4.851 9.132,7.16c0.50318,0.37632 0.78563,0.97873 0.75311,1.60623c-0.03252,0.6275 -0.37573,1.19748 -0.91511,1.51977c-14.65487,8.55551 -30.00608,15.85813 -45.89,21.83c-0.49888,0.18984 -0.8932,0.58332 -1.08411,1.08179c-0.19091,0.49847 -0.16032,1.05468 0.08411,1.52921c8.7974,16.98378 18.82899,33.29924 30.014,48.815c0.46556,0.65272 1.29635,0.93462 2.063,0.7c52.88427,-16.18191 102.61893,-41.27075 147.062,-74.186c0.43777,-0.3195 0.71656,-0.81221 0.765,-1.352c12.264,-126.783 -20.532,-236.912 -86.934,-334.541zM222.491,337.58c-28.972,0 -52.844,-26.587 -52.844,-59.239c0,-32.652 23.409,-59.241 52.844,-59.241c29.665,0 53.306,26.82 52.843,59.239c0,32.654 -23.41,59.241 -52.843,59.241zM417.871,337.58c-28.971,0 -52.843,-26.587 -52.843,-59.239c0,-32.652 23.409,-59.241 52.843,-59.241c29.667,0 53.307,26.82 52.844,59.239c0,32.654 -23.177,59.241 -52.844,59.241z"></path></g></g></svg>