<svg version="1.1"
    xmlns="http://www.w3.org/2000/svg"
    xmlns:xlink="http://www.w3.org/1999/xlink" width="512px" height="512px" viewBox="0,0,256,256">
    <g fill="#ffffff" fill-rule="nonzero" stroke="none" stroke-width="1" stroke-linecap="butt" stroke-linejoin="miter" stroke-miterlimit="10" stroke-dasharray="" stroke-dashoffset="0" font-family="none" font-weight="none" font-size="none" text-anchor="none" style="mix-blend-mode: normal">
        <g transform="translate(-0.00929,0) scale(0.5,0.5)">
            <path d="M256,32c14.2,0 27.3,7.5 34.5,19.8l216,368c7.3,12.4 7.3,27.7 0.2,40.1c-7.1,12.4 -20.4,20.1 -34.7,20.1h-432c-14.3,0 -27.6,-7.7 -34.7,-20.1c-7.1,-12.4 -7,-27.8 0.2,-40.1l216,-368c7.2,-12.3 20.3,-19.8 34.5,-19.8zM256,160c-13.3,0 -24,10.7 -24,24v112c0,13.3 10.7,24 24,24c13.3,0 24,-10.7 24,-24v-112c0,-13.3 -10.7,-24 -24,-24zM288,384c0,-17.67311 -14.32689,-32 -32,-32c-17.67311,0 -32,14.32689 -32,32c0,17.67311 14.32689,32 32,32c17.67311,0 32,-14.32689 32,-32z"></path>
        </g>
    </g>
</svg>