<svg version="1.1" xmlns="http://www.w3.org/2000/svg" xmlns:xlink="http://www.w3.org/1999/xlink" width="576px" height="512px" viewBox="0,0,256,227.54688"><g fill="#ffffff" fill-rule="nonzero" stroke="none" stroke-width="1" stroke-linecap="butt" stroke-linejoin="miter" stroke-miterlimit="10" stroke-dasharray="" stroke-dashoffset="0" font-family="none" font-weight="none" font-size="none" text-anchor="none" style="mix-blend-mode: normal"><g transform="translate(0,-0.00434) scale(0.44444,0.44444)"><path d="M0,64c0,-35.3 28.7,-64 64,-64h160v128c0,17.7 14.3,32 32,32h128v38.6c-73.9,20.9 -128,88.8 -128,169.4c0,59.1 29.1,111.3 73.7,143.3c-3.2,0.5 -6.4,0.7 -9.7,0.7h-256c-35.3,0 -64,-28.7 -64,-64zM384,128h-128v-128zM432,224c79.529,0 144,64.471 144,144c0,79.529 -64.471,144 -144,144c-79.529,0 -144,-64.471 -144,-144c0,-79.529 64.471,-144 144,-144zM448,304c0,-8.8 -7.2,-16 -16,-16c-8.8,0 -16,7.2 -16,16v48h-48c-8.8,0 -16,7.2 -16,16c0,8.8 7.2,16 16,16h48v48c0,8.8 7.2,16 16,16c8.8,0 16,-7.2 16,-16v-48h48c8.8,0 16,-7.2 16,-16c0,-8.8 -7.2,-16 -16,-16h-48z"></path></g></g></svg>