<svg version="1.1"
    xmlns="http://www.w3.org/2000/svg"
    xmlns:xlink="http://www.w3.org/1999/xlink" width="576px" height="512px" viewBox="0,0,256,227.54688">
    <g fill="#ffffff" fill-rule="nonzero" stroke="none" stroke-width="1" stroke-linecap="butt" stroke-linejoin="miter" stroke-miterlimit="10" stroke-dasharray="" stroke-dashoffset="0" font-family="none" font-weight="none" font-size="none" text-anchor="none" style="mix-blend-mode: normal">
        <g transform="translate(0.01089,-0.00434) scale(0.44444,0.44444)">
            <path d="M543.8,287.6c17,0 32,-14 32,-32.1c1,-9 -3,-17 -11,-24l-52.8,-46.5v-121c0,-17.7 -14.3,-32 -32,-32h-32c-17.7,0 -32,14.3 -32,32v36.7l-106.5,-93.7c-6,-5 -14,-7 -21,-7c-7,0 -15,1 -22,8l-256.5,223.5c-7,7 -10,15 -10,24c0,18 14,32.1 32,32.1h32v69.7c-0.1,0.9 -0.1,1.8 -0.1,2.8v111.9c0,22.1 17.9,40 40,40h16c1.2,0 2.4,-0.1 3.6,-0.2c1.5,0.1 3,0.2 4.5,0.2h32h24c22.1,0 40,-17.9 40,-40v-24v-64c0,-17.7 14.3,-32 32,-32h64c17.7,0 32,14.3 32,32v64v24c0,22.1 17.9,40 40,40h24h32.5c1.4,0 2.8,0 4.2,-0.1c1.1,0.1 2.2,0.1 3.3,0.1h16c22.1,0 40,-17.9 40,-40v-16.2c0.3,-2.6 0.5,-5.3 0.5,-8.1l-0.7,-160.2h32z"></path>
        </g>
    </g>
</svg>