<svg version="1.1" xmlns="http://www.w3.org/2000/svg" xmlns:xlink="http://www.w3.org/1999/xlink" width="512px" height="512px" viewBox="0,0,256,256"><g fill="#ffffff" fill-rule="nonzero" stroke="none" stroke-width="1" stroke-linecap="butt" stroke-linejoin="miter" stroke-miterlimit="10" stroke-dasharray="" stroke-dashoffset="0" font-family="none" font-weight="none" font-size="none" text-anchor="none" style="mix-blend-mode: normal"><g transform="translate(0.01012,0.025) scale(0.5,0.5)"><path d="M440.3,203.5c-15,0 -28.2,6.2 -37.9,15.9c-35.7,-24.7 -83.8,-40.6 -137.1,-42.3l27.7,-124.8l88.2,19.8c0,21.6 17.6,39.2 39.2,39.2c22,0 39.7,-18.1 39.7,-39.7c0,-21.6 -17.6,-39.7 -39.7,-39.7c-15.4,0 -28.7,9.3 -35.3,22l-97.4,-21.6c-4.9,-1.3 -9.7,2.2 -11,7.1l-30.4,137.6c-52.9,2.2 -100.5,18.1 -136.3,42.8c-9.7,-10.1 -23.4,-16.3 -38.4,-16.3c-55.6,0 -73.8,74.6 -22.9,100.1c-1.8,7.9 -2.6,16.3 -2.6,24.7c0,83.8 94.4,151.7 210.3,151.7c116.4,0 210.8,-67.9 210.8,-151.7c0,-8.4 -0.9,-17.2 -3.1,-25.1c49.9,-25.6 31.5,-99.7 -23.8,-99.7zM129.4,308.9c0,-22 17.6,-39.7 39.7,-39.7c21.6,0 39.2,17.6 39.2,39.7c0,21.6 -17.6,39.2 -39.2,39.2c-22,0.1 -39.7,-17.6 -39.7,-39.2zM343.7,402.4c-36.4,36.4 -139.1,36.4 -175.5,0c-4,-3.5 -4,-9.7 0,-13.7c3.5,-3.5 9.7,-3.5 13.2,0c27.8,28.5 120,29 149,0c3.5,-3.5 9.7,-3.5 13.2,0c4.1,4 4.1,10.2 0.1,13.7zM342.9,348.2c-21.6,0 -39.2,-17.6 -39.2,-39.2c0,-22 17.6,-39.7 39.2,-39.7c22,0 39.7,17.6 39.7,39.7c-0.1,21.5 -17.7,39.2 -39.7,39.2z"></path></g></g></svg>