<svg version="1.1" xmlns="http://www.w3.org/2000/svg" xmlns:xlink="http://www.w3.org/1999/xlink" width="448px" height="512px" viewBox="0,0,224,256"><g fill="#ffffff" fill-rule="nonzero" stroke="none" stroke-width="1" stroke-linecap="butt" stroke-linejoin="miter" stroke-miterlimit="10" stroke-dasharray="" stroke-dashoffset="0" font-family="none" font-weight="none" font-size="none" text-anchor="none" style="mix-blend-mode: normal"><g transform="scale(0.5,0.5)"><path d="M48,32h352c26.5,0 48,21.5 48,48v352c0,26.5 -21.5,48 -48,48h-352c-26.5,0 -48,-21.5 -48,-48v-352c0,-26.5 21.5,-48 48,-48zM382.1,224.9l-44.6,-116.4c-0.9,-2.3 -2.6,-4.3 -4.6,-5.6c-1.6,-1 -3.4,-1.6 -5.2,-1.8c-1.8,-0.2 -3.7,0.1 -5.4,0.7c-1.7,0.7 -3.3,1.7 -4.5,3.1c-1.2,1.4 -2.1,3 -2.6,4.8l-30.2,92.2h-122.9l-29.2,-92.2c-0.5,-1.8 -1.5,-3.4 -2.7,-4.8c-2.1,-1.3 -2.8,-2.4 -4.5,-3c-2.6,-0.7 -3.6,-1.8 -5.4,-0.8c-1.8,0.2 -3.6,0.8 -5.2,1.8c-2,1.3 -3.6,3.3 -4.5,5.6l-44.66,116.4l-0.47,1.2c-6.42,16.8 -7.21,35.2 -2.25,52.5c4.96,17.3 15.4,32.5 29.75,43.3l0.17,0.1l0.38,0.3l67.88,50.9l54.2,40.9c1.5,1 5.3,2.8 8.3,2.8c3,0 6,-1.8 8.4,-2.8l54.1,-40.9l68.4,-51.2l0.2,-0.1c14.4,-10.9 24.8,-26.1 29.8,-43.3c4.9,-17.3 3.3,-35.7 -2.3,-52.5z"></path></g></g></svg>