<svg version="1.1" xmlns="http://www.w3.org/2000/svg" xmlns:xlink="http://www.w3.org/1999/xlink" width="512px" height="512px" viewBox="0,0,256,256"><g fill="#ffffff" fill-rule="nonzero" stroke="none" stroke-width="1" stroke-linecap="butt" stroke-linejoin="miter" stroke-miterlimit="10" stroke-dasharray="" stroke-dashoffset="0" font-family="none" font-weight="none" font-size="none" text-anchor="none" style="mix-blend-mode: normal"><g transform="translate(0,-0.00625) scale(0.5,0.5)"><path d="M288,109.3v242.7c0,17.7 -14.3,32 -32,32c-17.7,0 -32,-14.3 -32,-32v-242.7l-73.4,73.4c-12.5,12.5 -32.8,12.5 -45.3,0c-12.5,-12.5 -12.5,-32.8 0,-45.3l128,-128c12.5,-12.5 32.8,-12.5 45.3,0l128,128c12.5,12.5 12.5,32.8 0,45.3c-12.5,12.5 -32.8,12.5 -45.3,0zM64,352h128c0,35.3 28.7,64 64,64c35.3,0 64,-28.7 64,-64h128c35.3,0 64,28.7 64,64v32c0,35.3 -28.7,64 -64,64h-384c-35.3,0 -64,-28.7 -64,-64v-32c0,-35.3 28.7,-64 64,-64zM432,456c13.25483,0 24,-10.74517 24,-24c0,-13.25483 -10.74517,-24 -24,-24c-13.25483,0 -24,10.74517 -24,24c0,13.25483 10.74517,24 24,24z"></path></g></g></svg>